<?xml version="1.0" encoding="UTF-8"?>
<svg version="1.1" xmlns="http://www.w3.org/2000/svg" width="512" height="512">
<path d="M0 0 C1.03676559 -0.00507454 2.07353119 -0.01014909 3.14171392 -0.0153774 C4.27933335 -0.01587516 5.41695278 -0.01637292 6.58904552 -0.01688576 C7.79877834 -0.02126801 9.00851116 -0.02565027 10.25490254 -0.03016531 C13.61458658 -0.04122406 16.97422412 -0.04777597 20.33391964 -0.05234647 C23.95721985 -0.0583083 27.58050296 -0.06991698 31.20379162 -0.08063698 C39.95718056 -0.10515219 48.71057515 -0.11978917 57.46398786 -0.13269705 C59.93802165 -0.13641037 62.41205489 -0.14038351 64.88608813 -0.14444971 C80.26078656 -0.16969347 95.63548592 -0.19173924 111.0102005 -0.20417786 C114.57108406 -0.20710741 118.13196758 -0.21006908 121.69285107 -0.21308327 C122.57785761 -0.21382932 123.46286415 -0.21457537 124.37468906 -0.21534403 C138.69418483 -0.22798316 153.01355601 -0.26118679 167.3329936 -0.3028851 C182.04708495 -0.34537984 196.76111268 -0.36888179 211.4752652 -0.37409842 C219.73148086 -0.37750458 227.98750204 -0.38916504 236.24365711 -0.42220116 C243.27911955 -0.450307 250.31434764 -0.46115524 257.34986184 -0.4500057 C260.93463197 -0.44484526 264.51891221 -0.44753279 268.10361004 -0.47247124 C289.33365361 -0.61199853 305.21231784 0.27764109 321.36057568 15.45342064 C332.5421019 27.04425398 336.20355012 39.61663131 336.16988659 55.31134605 C336.17512327 56.52449657 336.18035995 57.73764708 336.18575531 58.98755974 C336.19812466 62.33826204 336.20159987 65.68875406 336.2011584 69.03946459 C336.20281249 72.65997759 336.21589008 76.2804529 336.22735119 79.90094566 C336.25015579 87.81031725 336.25811707 95.71966193 336.26317763 103.62906194 C336.26644028 108.57344284 336.27296622 113.51781601 336.28017902 118.46219254 C336.2997399 132.16812863 336.31614682 145.87405755 336.31905556 159.58000851 C336.31924313 160.45630226 336.3194307 161.33259601 336.31962395 162.23544412 C336.31999019 164.0116936 336.32035389 165.78794307 336.32071506 167.56419254 C336.32089787 168.44585315 336.32108068 169.32751375 336.32126904 170.23589134 C336.32153986 171.56000814 336.32153986 171.56000814 336.32181615 172.91087478 C336.32535539 187.20425694 336.3523644 201.49748823 336.38976692 215.7908181 C336.42791381 230.48696312 336.4472135 245.18303341 336.44751507 259.87922901 C336.44809824 268.12196171 336.45649944 276.36451445 336.48551273 284.60720062 C336.5101123 291.62793747 336.51725211 298.64842872 336.50226521 305.66919709 C336.4951308 309.24588636 336.49580155 312.82209154 336.5186758 316.39872551 C336.64606423 337.60407606 335.73663016 353.47325927 320.57932568 369.60185814 C308.98047748 380.79111619 296.40596972 384.44756068 280.70121288 384.40443993 C279.48594567 384.40897104 278.27067846 384.41350215 277.01858497 384.41817057 C273.66208679 384.42860928 270.3058036 384.43014584 266.94930458 384.42778182 C263.32271778 384.42737243 259.69616253 384.43842443 256.06959057 384.44789696 C248.97060579 384.46448154 241.87165424 384.47000535 234.7726517 384.47112171 C228.99967575 384.4720734 223.22671071 384.47618973 217.45373821 384.48252296 C201.07120235 384.50012851 184.68869264 384.50936292 168.30614725 384.50786202 C167.42369847 384.5077821 166.5412497 384.50770219 165.63206005 384.50761986 C164.74852859 384.5075381 163.86499712 384.50745634 162.95469198 384.5073721 C148.63990602 384.50655941 134.32522534 384.52569446 120.01046982 384.55389659 C105.29738966 384.58265378 90.58436079 384.59643532 75.87125182 384.59470904 C67.61690781 384.59404611 59.36267416 384.59949564 51.10835552 384.62106514 C44.07986974 384.6393143 37.05154436 384.64359373 30.02304509 384.63004629 C26.44071919 384.62353536 22.85870067 384.62333088 19.27640438 384.64075279 C15.38352411 384.65948956 11.49108793 384.64688003 7.59818554 384.63149071 C6.479094 384.64177783 5.36000247 384.65206496 4.20699906 384.66266382 C-10.63071116 384.53355332 -23.04732879 378.63596357 -33.74489307 368.58623314 C-42.22268013 359.78561645 -48.21845792 348.44163426 -48.23569584 336.01877975 C-48.23953698 334.97893067 -48.24337813 333.93908158 -48.24733567 332.86772192 C-48.24603595 331.15617687 -48.24603595 331.15617687 -48.24470997 329.41005516 C-48.24916665 327.59016419 -48.24916665 327.59016419 -48.25371337 325.73350775 C-48.26089409 322.36416665 -48.26357272 318.99487653 -48.26431084 315.62553144 C-48.26616211 311.99210556 -48.27370991 308.35869072 -48.28044605 304.72527122 C-48.29402788 296.77881061 -48.30005408 288.83235505 -48.30445671 280.88588476 C-48.30721981 275.92280629 -48.31145734 270.95972976 -48.31596088 265.9966526 C-48.32815417 252.25226463 -48.33845284 238.50787822 -48.34183598 224.76348495 C-48.34205554 223.88379291 -48.34227511 223.00410086 -48.34250133 222.09775148 C-48.34271961 221.21596397 -48.34293788 220.33417646 -48.34316278 219.42566812 C-48.34360624 217.63885776 -48.3440528 215.8520474 -48.34450245 214.06523705 C-48.34472388 213.17891895 -48.34494531 212.29260086 -48.34517345 211.37942465 C-48.34911978 197.02425586 -48.36656851 182.66913789 -48.38986197 168.31398873 C-48.4135903 153.57167001 -48.42603853 138.82937676 -48.42720389 124.08703864 C-48.42811991 115.81147725 -48.43385353 107.53598205 -48.45202351 99.26043892 C-48.4674446 92.21206082 -48.47253319 85.16376935 -48.4642854 78.11537759 C-48.46038577 74.52122272 -48.46127463 70.92724219 -48.47534275 67.3331089 C-48.49047761 63.4306231 -48.48219462 59.52838097 -48.47176075 55.62587547 C-48.47981715 54.49822977 -48.48787356 53.37058408 -48.4961741 52.20876729 C-48.40649195 37.8443755 -43.38506338 25.85189499 -33.47926807 15.45732689 C-24.38253932 6.57006228 -13.04529406 0.03394798 0 0 Z " fill="#2EAFF0" transform="translate(112.10426807403564,63.862985610961914)"/>
<path d="M0 0 C4.04809211 1.29334351 5.14451072 2.92157625 7.1640625 6.69140625 C7.809486 10.07342541 7.34735521 12.47613887 6.1640625 15.69140625 C4.46207047 17.9360733 4.46207047 17.9360733 2.29107666 20.26525879 C1.06865643 21.57905266 1.06865643 21.57905266 -0.17845917 22.91938782 C-4.81318555 27.75387576 -9.51008973 32.52204291 -14.24316406 37.25976562 C-15.35970463 38.38094762 -16.47605234 39.50232171 -17.59222412 40.62387085 C-20.59357426 43.63820238 -23.59813109 46.64931615 -26.60374165 49.65939903 C-28.48423462 51.5428404 -30.36414656 53.42685987 -32.24388885 55.31105042 C-38.13464088 61.21542728 -44.02735378 67.11783646 -49.9229815 73.01734495 C-56.71415567 79.8130157 -63.4987069 86.61520958 -70.2776835 93.42304754 C-75.53375526 98.70071648 -80.79555896 103.97262531 -86.06177115 109.24017572 C-89.20149302 112.38094517 -92.33874121 115.52409381 -95.47003937 118.67326355 C-98.40856111 121.62823627 -101.35412553 124.57600036 -104.30527496 127.51836014 C-105.3862268 128.59854055 -106.46461856 129.68128989 -107.54023743 130.76678085 C-109.00909832 132.2483302 -110.48692221 133.72032555 -111.96734619 135.19030762 C-113.2039115 136.42907276 -113.2039115 136.42907276 -114.46545792 137.69286346 C-117.67414612 140.39809691 -120.57449476 141.4391177 -124.6484375 142.25390625 C-129.63164594 141.37451653 -132.32554579 138.17447973 -135.8359375 134.69140625 C-136.43664062 134.11648438 -137.03734375 133.5415625 -137.65625 132.94921875 C-141.34487075 129.3598434 -144.72825103 125.5574709 -148.0859375 121.66015625 C-150.28687948 119.18409652 -152.63190137 116.88218603 -154.99560547 114.56298828 C-156.75507999 112.77363677 -158.39752848 110.93146074 -160.03125 109.02734375 C-164.65869942 103.70344726 -169.53400397 98.62217615 -174.40234375 93.51953125 C-175.08941406 92.79507813 -175.77648437 92.070625 -176.484375 91.32421875 C-177.10489746 90.67340332 -177.72541992 90.02258789 -178.36474609 89.35205078 C-181.257877 86.08635606 -181.22246834 83.16906947 -181.1953125 78.953125 C-180.62536884 75.36619696 -178.63367701 73.82301731 -175.8359375 71.69140625 C-172.28445352 69.91566426 -168.57828812 70.68229424 -164.8359375 71.69140625 C-162.21715537 73.36478719 -160.27091079 75.44290606 -158.2109375 77.75390625 C-157.69015625 78.30240234 -157.169375 78.85089844 -156.6328125 79.41601562 C-153.82499517 82.40018601 -151.13771043 85.48668421 -148.44921875 88.578125 C-144.62412949 92.96967867 -140.64987227 97.21078132 -136.6484375 101.44140625 C-135.60139648 102.55322266 -135.60139648 102.55322266 -134.53320312 103.6875 C-131.34358288 107.06831537 -128.13347393 110.41522045 -124.8359375 113.69140625 C-121.25982411 112.17280691 -118.97852114 110.07630704 -116.25050354 107.33302307 C-115.33508789 106.41746643 -114.41967224 105.50190979 -113.47651672 104.55860901 C-112.46936671 103.5411915 -111.46230484 102.52368674 -110.45532227 101.50610352 C-109.38941212 100.43635426 -108.32304515 99.36706004 -107.2562561 98.29818726 C-104.96112092 95.99673215 -102.66912965 93.6922067 -100.37948799 91.38528633 C-96.75814157 87.7368922 -93.12917663 84.09614105 -89.49900818 80.45652771 C-81.13778 72.07120937 -72.78658581 63.67592076 -64.43547058 55.28053284 C-56.78385809 47.58855564 -49.1301445 39.89870104 -41.46829075 32.21692318 C-37.86075063 28.59942292 -34.25814313 24.97710237 -30.65923893 21.3510114 C-28.41799075 19.09483136 -26.17259497 16.84281432 -23.92605972 14.59189987 C-22.88627819 13.54837809 -21.84822517 12.50313067 -20.81205177 11.45602608 C-19.39547752 10.02498248 -17.9720731 8.60070968 -16.5483551 7.17677307 C-15.75435586 6.37833261 -14.96035662 5.57989214 -14.14229679 4.75725651 C-9.4203528 0.5277207 -6.2212777 -0.98833007 0 0 Z " fill="#A2DFFE" transform="translate(351.8359375,185.30859375)"/>
</svg>
